# Blender v2.79 (sub 0) OBJ File: ''
# www.blender.org
mtllib logoThree.mtl
o three
v -0.441110 -0.061947 1.030726
v -0.388996 -0.061947 1.030726
v -0.368261 -0.061947 1.324485
v -0.340558 -0.061947 1.229064
v -0.224604 -0.061947 1.186867
v -0.368261 0.061947 1.324485
v -0.224604 0.061947 1.186867
v -0.340558 0.061947 1.229064
v -0.441110 0.061947 1.030726
v -0.224604 0.061947 1.118515
v -0.388996 0.061947 1.030726
v -0.224604 -0.061947 1.118515
v -0.132521 -0.061947 1.030726
v -0.061609 -0.061947 1.030726
v -0.061609 0.061947 1.030726
v -0.132521 0.061947 1.030726
v -0.520367 -0.061947 0.711129
v -0.455684 -0.061947 0.757661
v -0.455684 0.061947 0.757661
v 0.017207 -0.061947 0.887978
v 0.075515 -0.061947 0.832388
v 0.191692 -0.061947 0.788074
v 0.191692 0.061947 0.788074
v -0.520367 0.061947 0.711129
v 0.017207 0.061947 0.887978
v 0.075515 0.061947 0.832388
v 0.017207 -0.061947 0.832388
v -0.224604 -0.061947 0.772371
v -0.224604 -0.061947 0.821341
v 0.017207 0.061947 0.832388
v -0.224604 0.061947 0.821341
v 0.191692 -0.061947 0.721628
v 0.048901 -0.061947 0.711129
v 0.048901 0.061947 0.711129
v -0.011058 -0.061947 0.711129
v -0.224604 0.061947 0.772371
v -0.011058 0.061947 0.711129
v 0.191692 0.061947 0.721628
v -0.455684 -0.061947 0.715017
v -0.455684 0.061947 0.715017
v 0.202704 -0.061947 0.711129
v 0.272013 -0.061947 0.711129
v 0.272013 0.061947 0.711129
v 0.202704 0.061947 0.711129
v -0.451610 -0.061947 0.711129
v -0.451610 0.061947 0.711129
v -0.504461 -0.061947 0.557935
v -0.478412 -0.061947 0.664598
v -0.558358 -0.061947 0.557935
v -0.291094 -0.061947 0.557935
v -0.291094 0.061947 0.557935
v -0.046768 -0.061947 0.557935
v 0.015277 -0.061947 0.557935
v 0.015277 0.061947 0.557935
v 0.330251 -0.061947 0.589529
v 0.330251 -0.061947 0.655340
v 0.330251 0.061947 0.655340
v -0.478412 0.061947 0.664598
v -0.558358 0.061947 0.557935
v -0.366533 0.061947 0.557935
v -0.046768 0.061947 0.557935
v 0.330251 0.061947 0.589529
v -0.504461 0.061947 0.557935
v -0.366533 -0.061947 0.557935
v 0.363389 -0.061947 0.557935
v 0.431930 -0.061947 0.557935
v 0.431930 0.061947 0.557935
v 0.363389 0.061947 0.557935
v -0.613998 -0.061947 0.333570
v -0.559255 -0.061947 0.333570
v -0.559255 0.061947 0.333570
v -0.224604 -0.061947 0.422622
v -0.224604 -0.061947 0.494478
v -0.224604 0.061947 0.494478
v -0.026590 -0.061947 0.367189
v -0.091230 -0.061947 0.367189
v -0.026590 0.061947 0.367189
v 0.430396 -0.061947 0.494052
v 0.475268 -0.061947 0.451272
v 0.563193 -0.061947 0.432191
v 0.430396 -0.061947 0.451272
v 0.563193 0.061947 0.432191
v -0.613998 0.061947 0.333570
v -0.224604 0.061947 0.422622
v -0.091230 0.061947 0.367189
v 0.430396 0.061947 0.494052
v 0.563193 0.061947 0.367446
v 0.475268 0.061947 0.451272
v 0.430396 0.061947 0.451272
v -0.137402 0.061947 0.339486
v 0.330251 -0.061947 0.466251
v 0.330251 -0.061947 0.418111
v 0.330251 0.061947 0.466251
v 0.191692 -0.061947 0.427786
v 0.191692 0.061947 0.372230
v 0.191692 0.061947 0.427786
v 0.330251 0.061947 0.418111
v 0.445928 -0.061947 0.333570
v 0.445928 0.061947 0.333570
v 0.402993 -0.061947 0.333570
v 0.563193 -0.061947 0.367446
v 0.402993 0.061947 0.333570
v 0.598726 -0.061947 0.333570
v 0.666142 -0.061947 0.333570
v 0.666142 0.061947 0.333570
v 0.074940 -0.061947 0.333570
v 0.191692 -0.061947 0.372230
v -0.137402 -0.061947 0.339486
v 0.074940 0.061947 0.333570
v 0.598726 0.061947 0.333570
v -0.156224 -0.061947 0.333570
v -0.156224 0.061947 0.333570
v -0.659386 -0.061947 0.150546
v -0.592766 -0.061947 0.196353
v -0.592766 0.061947 0.196353
v -0.224604 -0.061947 0.264044
v -0.113820 -0.061947 0.299950
v -0.224604 -0.061947 0.312076
v -0.026590 -0.061947 0.299950
v -0.026590 0.061947 0.299950
v 0.360381 -0.061947 0.150546
v 0.400305 -0.061947 0.150546
v 0.400305 0.061947 0.150546
v 0.738655 -0.061947 0.200164
v 0.738655 -0.061947 0.264105
v 0.738655 0.061947 0.264105
v -0.659386 0.061947 0.150546
v -0.113820 0.061947 0.299950
v -0.224604 0.061947 0.312076
v 0.360381 0.061947 0.150546
v 0.738655 0.061947 0.200164
v -0.224604 0.061947 0.264044
v -0.096015 -0.061947 0.150546
v -0.060449 -0.061947 0.277924
v -0.149122 -0.061947 0.150546
v 0.137073 -0.061947 0.150546
v 0.137073 0.061947 0.150546
v -0.060449 0.061947 0.277924
v -0.149122 0.061947 0.150546
v 0.059064 0.061947 0.150546
v -0.096015 0.061947 0.150546
v 0.059064 -0.061947 0.150546
v 0.790700 -0.061947 0.150546
v 0.857199 -0.061947 0.150546
v 0.857199 0.061947 0.150546
v -0.574780 -0.061947 0.150546
v -0.574780 0.061947 0.150546
v 0.790700 0.061947 0.150546
v -0.580652 -0.061947 0.148642
v -0.615141 -0.061947 0.104738
v -0.657299 -0.061947 -0.067886
v -0.713555 -0.061947 -0.067886
v -0.580652 0.061947 0.148642
v -0.200735 -0.061947 -0.067886
v -0.157006 -0.061947 -0.067886
v -0.157006 0.061947 -0.067886
v 0.191692 -0.061947 0.009189
v 0.191692 -0.061947 0.100685
v 0.191692 0.061947 0.100685
v 0.330251 -0.061947 0.021133
v 0.358397 -0.061947 -0.017576
v 0.358397 0.061947 -0.017576
v 0.844519 -0.061947 0.099236
v 1.085217 -0.061947 -0.067886
v 1.085217 0.061947 -0.067886
v -0.615141 0.061947 0.104738
v -0.713555 0.061947 -0.067886
v -0.200735 0.061947 -0.067886
v 0.191692 0.061947 0.009189
v 0.330251 0.061947 0.021133
v 0.844519 0.061947 0.099236
v -0.345738 -0.061947 -0.067886
v -0.345738 0.061947 -0.067886
v -0.428692 0.061947 -0.067886
v -0.657299 0.061947 -0.067886
v -0.428692 -0.061947 -0.067886
v 0.321238 -0.061947 -0.017576
v 0.321238 0.061947 -0.017576
v 0.264008 0.061947 -0.067886
v 0.738655 -0.061947 0.073797
v 0.738655 -0.061947 0.018963
v 0.844519 -0.061947 0.050142
v 0.896013 -0.061947 0.050142
v 0.896013 0.061947 0.050142
v 0.844519 0.061947 0.050142
v 0.738655 0.061947 0.073797
v 0.563193 -0.061947 0.031635
v 0.738655 0.061947 0.018963
v 0.563193 0.061947 -0.032714
v 0.563193 0.061947 0.031635
v 0.867487 -0.061947 -0.067886
v 0.820236 -0.061947 -0.067886
v 1.019814 -0.061947 -0.067886
v 0.867487 0.061947 -0.067886
v 0.820236 0.061947 -0.067886
v 1.019814 0.061947 -0.067886
v 0.563193 -0.061947 -0.032714
v 0.443772 -0.061947 -0.067886
v 0.330251 -0.061947 -0.067886
v 0.330251 0.061947 -0.067886
v 0.264008 -0.061947 -0.067886
v 0.443772 0.061947 -0.067886
v -0.937714 -0.061947 -0.971794
v -0.750417 -0.061947 -0.449175
v -0.728798 -0.061947 -0.360655
v -0.728798 0.061947 -0.360655
v -0.263605 -0.061947 -0.220732
v -0.226668 -0.061947 -0.177639
v -0.226668 0.061947 -0.177639
v -0.192808 -0.061947 -0.196107
v -0.224604 -0.061947 -0.168904
v -0.192808 0.061947 -0.196107
v 0.278145 -0.061947 -0.082953
v 0.302104 -0.061947 -0.118197
v 0.330251 -0.061947 -0.232023
v 0.358397 -0.061947 -0.118197
v 0.392616 -0.061947 -0.082953
v 0.392616 0.061947 -0.082953
v 0.744700 -0.061947 -0.435037
v 0.781321 -0.061947 -0.424408
v 0.781321 0.061947 -0.424408
v 1.348361 -0.061947 -0.319967
v 1.250837 -0.061947 -0.288139
v 1.348361 0.061947 -0.319967
v -0.937714 0.061947 -0.971794
v -0.263605 0.061947 -0.220732
v -0.224604 0.061947 -0.168904
v 0.278145 0.061947 -0.082953
v 0.302104 0.061947 -0.118197
v 0.358397 0.061947 -0.118197
v 0.330251 0.061947 -0.232023
v 0.744700 0.061947 -0.435037
v 1.250837 0.061947 -0.288139
v 0.191692 -0.061947 -0.103725
v 0.191692 -0.061947 -0.149386
v 0.563193 -0.061947 -0.253530
v 0.563193 0.061947 -0.253530
v 0.191692 0.061947 -0.103725
v 0.563193 0.061947 -0.318980
v -0.158949 -0.061947 -0.248435
v 0.191692 0.061947 -0.149386
v 0.244125 -0.061947 -0.580321
v 0.191692 -0.061947 -0.563427
v 0.563193 -0.061947 -0.318980
v 0.191692 0.061947 -0.563427
v -0.158949 0.061947 -0.248435
v -0.224604 -0.061947 -0.410005
v -0.192808 -0.061947 -0.278691
v -0.224604 0.061947 -0.410005
v -0.192808 0.061947 -0.278691
v -0.256399 -0.061947 -0.278949
v -0.256399 0.061947 -0.278949
v -0.706855 -0.061947 -0.402342
v 0.244125 0.061947 -0.580321
v 0.139258 -0.061947 -0.610757
v 0.187502 -0.061947 -0.580321
v 0.139258 0.061947 -0.610757
v 0.187502 0.061947 -0.580321
v 0.738655 -0.061947 -0.428992
v 0.738655 0.061947 -0.428992
v 0.695990 0.061947 -0.449175
v -0.368261 0.061947 -0.740935
v -0.368261 -0.061947 -0.740935
v -0.304390 -0.061947 -0.739519
v -0.706855 0.061947 -0.402342
v 0.738655 -0.061947 -0.493812
v 0.695990 -0.061947 -0.449175
v 0.738655 0.061947 -0.493812
v -0.750417 0.061947 -0.449175
v -0.412854 0.061947 -0.771000
v -0.304390 0.061947 -0.739519
v -0.860761 -0.061947 -0.900998
v -0.412854 -0.061947 -0.771000
v 0.563193 -0.061947 -0.487717
v 0.563193 -0.061947 -0.543842
v -0.860761 0.061947 -0.900998
v 0.563193 0.061947 -0.487717
v 0.330251 -0.061947 -0.555325
v 0.563193 0.061947 -0.543842
v 0.330251 0.061947 -0.610260
v 0.330251 0.061947 -0.555325
v 0.330251 -0.061947 -0.610260
v 0.191692 -0.061947 -0.649768
v 0.191692 0.061947 -0.649768
v -0.224604 -0.061947 -0.768466
v -0.224604 -0.061947 -0.716363
v -0.224604 0.061947 -0.716363
v -0.224604 0.061947 -0.768466
vn 0.0000 -1.0000 -0.0000
vn -0.9706 0.0000 0.2407
vn 0.6918 0.0000 0.7221
vn 0.0000 1.0000 0.0000
vn 0.9714 0.0000 -0.2372
vn -0.6900 0.0000 -0.7238
vn -0.2657 0.0000 0.9641
vn 0.9767 0.0000 -0.2144
vn 0.2409 0.0000 -0.9706
vn -0.9739 0.0000 0.2270
vn 0.6904 0.0000 0.7234
vn -0.2675 0.0000 0.9636
vn 0.9703 0.0000 -0.2419
vn 0.3143 0.0000 -0.9493
vn -0.9740 0.0000 0.2268
vn -0.2999 0.0000 0.9540
vn -0.9732 0.0000 0.2300
vn 0.3083 0.0000 -0.9513
vn 0.6742 0.0000 0.7385
vn 0.9632 0.0000 -0.2689
vn -0.7293 0.0000 -0.6842
vn 0.6777 0.0000 0.7353
vn -0.6794 0.0000 -0.7338
vn -0.2336 0.0000 0.9723
vn 0.2825 0.0000 -0.9593
vn -0.9795 0.0000 0.2015
vn 0.9720 0.0000 -0.2349
vn 0.7071 0.0000 0.7071
vn 0.2718 0.0000 -0.9623
vn 0.9708 0.0000 -0.2400
vn -0.7001 0.0000 -0.7141
vn -0.9732 0.0000 0.2299
vn -0.2880 0.0000 0.9576
vn 0.9719 0.0000 -0.2353
vn -0.7071 0.0000 -0.7071
vn 0.2642 0.0000 -0.9645
vn -0.9719 0.0000 0.2353
vn -0.2787 0.0000 0.9604
vn 0.2742 0.0000 -0.9617
usemtl Material.001
s off
f 1//1 2//1 3//1
f 2//1 4//1 3//1
f 4//1 5//1 3//1
f 6//2 1//2 3//2
f 7//3 6//3 3//3
f 5//3 7//3 3//3
f 8//4 9//4 6//4
f 10//4 8//4 6//4
f 7//4 10//4 6//4
f 9//2 1//2 6//2
f 2//5 11//5 4//5
f 11//5 8//5 4//5
f 12//1 5//1 4//1
f 8//6 12//6 4//6
f 11//4 9//4 8//4
f 10//6 12//6 8//6
f 13//1 14//1 5//1
f 12//1 13//1 5//1
f 15//3 7//3 5//3
f 14//3 15//3 5//3
f 15//4 10//4 7//4
f 10//6 13//6 12//6
f 15//4 16//4 10//4
f 16//6 13//6 10//6
f 17//1 18//1 1//1
f 18//1 2//1 1//1
f 9//2 17//2 1//2
f 18//5 19//5 2//5
f 19//5 11//5 2//5
f 20//1 14//1 13//1
f 16//6 20//6 13//6
f 20//1 21//1 14//1
f 21//1 22//1 14//1
f 23//3 15//3 14//3
f 22//3 23//3 14//3
f 11//4 24//4 9//4
f 24//2 17//2 9//2
f 19//4 24//4 11//4
f 15//4 25//4 16//4
f 25//6 20//6 16//6
f 23//4 26//4 15//4
f 26//4 25//4 15//4
f 27//1 21//1 20//1
f 28//1 27//1 20//1
f 29//1 28//1 20//1
f 25//7 29//7 20//7
f 30//4 31//4 25//4
f 26//4 30//4 25//4
f 31//7 29//7 25//7
f 26//6 32//6 21//6
f 33//8 34//8 21//8
f 34//8 26//8 21//8
f 35//1 33//1 27//1
f 33//1 21//1 27//1
f 36//9 30//9 27//9
f 28//9 36//9 27//9
f 30//10 35//10 27//10
f 32//1 22//1 21//1
f 36//4 31//4 30//4
f 26//4 37//4 30//4
f 37//10 35//10 30//10
f 34//4 37//4 26//4
f 23//4 38//4 26//4
f 38//6 32//6 26//6
f 39//1 28//1 29//1
f 18//1 39//1 29//1
f 31//7 18//7 29//7
f 36//4 40//4 31//4
f 40//4 19//4 31//4
f 19//7 18//7 31//7
f 32//1 41//1 22//1
f 41//1 42//1 22//1
f 43//3 23//3 22//3
f 42//3 43//3 22//3
f 43//4 38//4 23//4
f 40//9 36//9 28//9
f 39//9 40//9 28//9
f 17//1 39//1 18//1
f 40//4 24//4 19//4
f 38//6 41//6 32//6
f 43//4 44//4 38//4
f 44//6 41//6 38//6
f 17//1 45//1 39//1
f 46//11 40//11 39//11
f 45//11 46//11 39//11
f 46//4 24//4 40//4
f 47//1 48//1 17//1
f 49//1 47//1 17//1
f 48//1 45//1 17//1
f 24//2 49//2 17//2
f 48//1 50//1 45//1
f 51//11 46//11 45//11
f 50//11 51//11 45//11
f 52//1 33//1 35//1
f 37//10 52//10 35//10
f 52//1 53//1 33//1
f 53//8 54//8 33//8
f 54//8 34//8 33//8
f 55//1 42//1 41//1
f 44//6 55//6 41//6
f 55//1 56//1 42//1
f 57//3 43//3 42//3
f 56//3 57//3 42//3
f 46//4 58//4 24//4
f 58//4 59//4 24//4
f 59//2 49//2 24//2
f 60//4 58//4 46//4
f 51//4 60//4 46//4
f 34//4 54//4 37//4
f 54//4 61//4 37//4
f 61//10 52//10 37//10
f 57//4 62//4 44//4
f 43//4 57//4 44//4
f 62//6 55//6 44//6
f 47//5 63//5 48//5
f 63//5 58//5 48//5
f 64//1 50//1 48//1
f 58//6 64//6 48//6
f 63//4 59//4 58//4
f 60//6 64//6 58//6
f 55//1 65//1 56//1
f 65//1 66//1 56//1
f 67//3 57//3 56//3
f 66//3 67//3 56//3
f 67//4 62//4 57//4
f 62//6 65//6 55//6
f 67//4 68//4 62//4
f 68//6 65//6 62//6
f 69//1 47//1 49//1
f 59//2 69//2 49//2
f 69//1 70//1 47//1
f 70//5 71//5 47//5
f 71//5 63//5 47//5
f 72//1 50//1 64//1
f 60//6 72//6 64//6
f 72//1 73//1 50//1
f 74//11 51//11 50//11
f 73//11 74//11 50//11
f 75//1 53//1 52//1
f 76//1 75//1 52//1
f 61//10 76//10 52//10
f 75//8 77//8 53//8
f 77//8 54//8 53//8
f 78//1 66//1 65//1
f 68//6 78//6 65//6
f 79//1 80//1 66//1
f 81//1 79//1 66//1
f 78//1 81//1 66//1
f 82//3 67//3 66//3
f 80//3 82//3 66//3
f 71//4 83//4 59//4
f 63//4 71//4 59//4
f 83//2 69//2 59//2
f 74//4 84//4 60//4
f 51//4 74//4 60//4
f 84//6 72//6 60//6
f 54//4 85//4 61//4
f 85//10 76//10 61//10
f 77//4 85//4 54//4
f 67//4 86//4 68//4
f 86//6 78//6 68//6
f 87//4 88//4 67//4
f 82//4 87//4 67//4
f 89//4 86//4 67//4
f 88//4 89//4 67//4
f 72//1 76//1 73//1
f 85//11 74//11 73//11
f 76//11 85//11 73//11
f 90//4 84//4 74//4
f 85//4 90//4 74//4
f 86//12 91//12 78//12
f 91//1 92//1 78//1
f 92//1 81//1 78//1
f 89//4 93//4 86//4
f 93//12 91//12 86//12
f 94//1 92//1 91//1
f 93//12 94//12 91//12
f 95//4 96//4 93//4
f 97//4 95//4 93//4
f 89//4 97//4 93//4
f 96//12 94//12 93//12
f 98//13 99//13 79//13
f 99//13 88//13 79//13
f 98//1 79//1 81//1
f 100//1 98//1 81//1
f 97//14 89//14 81//14
f 92//14 97//14 81//14
f 89//15 100//15 81//15
f 101//1 80//1 79//1
f 88//6 101//6 79//6
f 88//4 102//4 89//4
f 102//15 100//15 89//15
f 99//4 102//4 88//4
f 87//6 101//6 88//6
f 101//1 103//1 80//1
f 103//1 104//1 80//1
f 105//3 82//3 80//3
f 104//3 105//3 80//3
f 105//4 87//4 82//4
f 75//1 106//1 94//1
f 107//1 92//1 94//1
f 106//1 107//1 94//1
f 96//12 75//12 94//12
f 95//4 77//4 96//4
f 77//12 75//12 96//12
f 108//1 76//1 72//1
f 84//6 108//6 72//6
f 90//6 108//6 84//6
f 95//14 97//14 92//14
f 107//14 95//14 92//14
f 109//14 95//14 107//14
f 106//14 109//14 107//14
f 109//4 77//4 95//4
f 87//6 103//6 101//6
f 105//4 110//4 87//4
f 110//6 103//6 87//6
f 106//1 75//1 76//1
f 108//1 106//1 76//1
f 77//4 109//4 85//4
f 109//4 90//4 85//4
f 90//16 111//16 108//16
f 111//1 106//1 108//1
f 109//4 112//4 90//4
f 112//16 111//16 90//16
f 113//1 114//1 69//1
f 114//1 70//1 69//1
f 83//2 113//2 69//2
f 114//5 115//5 70//5
f 115//5 71//5 70//5
f 116//1 117//1 111//1
f 117//1 106//1 111//1
f 118//1 116//1 111//1
f 112//16 118//16 111//16
f 117//1 119//1 106//1
f 120//14 109//14 106//14
f 119//14 120//14 106//14
f 121//1 98//1 100//1
f 102//15 121//15 100//15
f 121//1 122//1 98//1
f 122//13 123//13 98//13
f 123//13 99//13 98//13
f 124//1 104//1 103//1
f 110//6 124//6 103//6
f 124//1 125//1 104//1
f 126//3 105//3 104//3
f 125//3 126//3 104//3
f 71//4 127//4 83//4
f 127//2 113//2 83//2
f 115//4 127//4 71//4
f 109//4 128//4 112//4
f 128//4 129//4 112//4
f 129//16 118//16 112//16
f 120//4 128//4 109//4
f 123//4 130//4 102//4
f 99//4 123//4 102//4
f 130//15 121//15 102//15
f 105//4 126//4 110//4
f 126//4 131//4 110//4
f 131//6 124//6 110//6
f 114//1 116//1 118//1
f 129//16 114//16 118//16
f 128//4 132//4 129//4
f 132//4 115//4 129//4
f 115//16 114//16 129//16
f 133//1 134//1 117//1
f 134//1 119//1 117//1
f 135//1 133//1 117//1
f 128//17 135//17 117//17
f 132//18 128//18 117//18
f 116//18 132//18 117//18
f 134//1 136//1 119//1
f 137//19 120//19 119//19
f 136//19 137//19 119//19
f 120//4 138//4 128//4
f 138//4 139//4 128//4
f 139//17 135//17 128//17
f 140//4 138//4 120//4
f 137//4 140//4 120//4
f 141//20 138//20 134//20
f 133//20 141//20 134//20
f 142//1 136//1 134//1
f 138//21 142//21 134//21
f 141//4 139//4 138//4
f 140//21 142//21 138//21
f 124//1 143//1 125//1
f 143//1 144//1 125//1
f 145//3 126//3 125//3
f 144//3 145//3 125//3
f 145//4 131//4 126//4
f 114//1 146//1 116//1
f 147//18 132//18 116//18
f 146//18 147//18 116//18
f 147//4 115//4 132//4
f 131//6 143//6 124//6
f 145//4 148//4 131//4
f 148//6 143//6 131//6
f 113//1 146//1 114//1
f 147//4 127//4 115//4
f 149//1 146//1 113//1
f 150//1 149//1 113//1
f 151//1 150//1 113//1
f 152//1 151//1 113//1
f 127//2 152//2 113//2
f 153//18 147//18 146//18
f 149//18 153//18 146//18
f 154//1 133//1 135//1
f 139//17 154//17 135//17
f 154//1 155//1 133//1
f 156//20 141//20 133//20
f 155//20 156//20 133//20
f 157//1 136//1 142//1
f 140//21 157//21 142//21
f 157//1 158//1 136//1
f 159//19 137//19 136//19
f 158//19 159//19 136//19
f 160//1 161//1 121//1
f 161//1 122//1 121//1
f 130//15 160//15 121//15
f 161//13 162//13 122//13
f 162//13 123//13 122//13
f 163//1 144//1 143//1
f 148//6 163//6 143//6
f 163//1 164//1 144//1
f 165//3 145//3 144//3
f 164//3 165//3 144//3
f 147//4 153//4 127//4
f 153//4 166//4 127//4
f 166//4 167//4 127//4
f 167//2 152//2 127//2
f 156//4 168//4 139//4
f 141//4 156//4 139//4
f 168//17 154//17 139//17
f 159//4 169//4 140//4
f 137//4 159//4 140//4
f 169//21 157//21 140//21
f 123//4 170//4 130//4
f 170//15 160//15 130//15
f 162//4 170//4 123//4
f 145//4 171//4 148//4
f 171//6 163//6 148//6
f 165//4 171//4 145//4
f 150//1 172//1 149//1
f 173//22 153//22 149//22
f 172//22 173//22 149//22
f 174//4 166//4 153//4
f 173//4 174//4 153//4
f 151//5 175//5 150//5
f 175//5 166//5 150//5
f 176//1 172//1 150//1
f 166//23 176//23 150//23
f 175//4 167//4 166//4
f 174//23 176//23 166//23
f 157//1 177//1 158//1
f 178//19 159//19 158//19
f 177//19 178//19 158//19
f 179//4 169//4 159//4
f 178//4 179//4 159//4
f 171//24 180//24 163//24
f 180//1 181//1 163//1
f 181//1 182//1 163//1
f 182//1 183//1 163//1
f 183//1 164//1 163//1
f 165//4 184//4 171//4
f 185//4 186//4 171//4
f 184//4 185//4 171//4
f 186//24 180//24 171//24
f 187//1 181//1 180//1
f 186//24 187//24 180//24
f 188//4 189//4 186//4
f 185//4 188//4 186//4
f 189//4 190//4 186//4
f 190//24 187//24 186//24
f 191//1 183//1 182//1
f 192//1 191//1 182//1
f 188//25 185//25 182//25
f 181//25 188//25 182//25
f 185//26 192//26 182//26
f 193//1 164//1 183//1
f 184//6 193//6 183//6
f 194//27 184//27 183//27
f 191//27 194//27 183//27
f 184//4 195//4 185//4
f 195//26 192//26 185//26
f 194//4 195//4 184//4
f 165//4 196//4 184//4
f 196//6 193//6 184//6
f 197//1 181//1 187//1
f 198//1 197//1 187//1
f 161//1 198//1 187//1
f 190//24 161//24 187//24
f 189//4 162//4 190//4
f 162//24 161//24 190//24
f 177//1 199//1 160//1
f 199//1 161//1 160//1
f 170//15 177//15 160//15
f 200//4 178//4 170//4
f 162//4 200//4 170//4
f 178//15 177//15 170//15
f 189//25 188//25 181//25
f 197//25 189//25 181//25
f 201//1 177//1 157//1
f 169//21 201//21 157//21
f 179//21 201//21 169//21
f 201//1 199//1 177//1
f 199//1 198//1 161//1
f 200//4 179//4 178//4
f 189//4 202//4 162//4
f 202//4 200//4 162//4
f 202//25 189//25 197//25
f 198//25 202//25 197//25
f 203//1 204//1 152//1
f 205//1 151//1 152//1
f 204//1 205//1 152//1
f 167//2 203//2 152//2
f 205//5 206//5 151//5
f 206//5 175//5 151//5
f 207//1 208//1 176//1
f 208//1 172//1 176//1
f 174//23 207//23 176//23
f 209//22 173//22 172//22
f 208//22 209//22 172//22
f 210//1 155//1 154//1
f 211//1 210//1 154//1
f 168//17 211//17 154//17
f 212//20 156//20 155//20
f 210//20 212//20 155//20
f 213//1 199//1 201//1
f 179//21 213//21 201//21
f 213//1 214//1 199//1
f 214//1 215//1 199//1
f 215//1 216//1 199//1
f 217//1 198//1 199//1
f 216//1 217//1 199//1
f 218//25 202//25 198//25
f 217//25 218//25 198//25
f 219//1 191//1 192//1
f 195//26 219//26 192//26
f 219//1 220//1 191//1
f 221//27 194//27 191//27
f 220//27 221//27 191//27
f 222//1 164//1 193//1
f 223//1 222//1 193//1
f 196//6 223//6 193//6
f 224//3 165//3 164//3
f 222//3 224//3 164//3
f 175//4 206//4 167//4
f 206//4 225//4 167//4
f 225//2 203//2 167//2
f 173//4 226//4 174//4
f 226//23 207//23 174//23
f 209//4 226//4 173//4
f 156//4 227//4 168//4
f 227//17 211//17 168//17
f 212//4 227//4 156//4
f 200//4 228//4 179//4
f 228//21 213//21 179//21
f 229//4 228//4 200//4
f 202//4 218//4 200//4
f 218//4 230//4 200//4
f 230//4 231//4 200//4
f 231//4 229//4 200//4
f 194//4 232//4 195//4
f 232//26 219//26 195//26
f 221//4 232//4 194//4
f 165//4 233//4 196//4
f 233//6 223//6 196//6
f 224//4 233//4 165//4
f 234//1 235//1 213//1
f 235//1 214//1 213//1
f 228//24 234//24 213//24
f 216//1 236//1 217//1
f 237//28 218//28 217//28
f 236//28 237//28 217//28
f 229//4 238//4 228//4
f 238//24 234//24 228//24
f 237//4 239//4 218//4
f 239//4 230//4 218//4
f 210//1 240//1 234//1
f 240//1 235//1 234//1
f 238//24 210//24 234//24
f 229//4 241//4 238//4
f 241//4 212//4 238//4
f 212//24 210//24 238//24
f 235//29 241//29 214//29
f 241//29 229//29 214//29
f 215//30 231//30 216//30
f 231//30 230//30 216//30
f 242//1 215//1 214//1
f 243//1 242//1 214//1
f 229//2 243//2 214//2
f 244//1 236//1 216//1
f 230//31 244//31 216//31
f 231//4 245//4 229//4
f 245//2 243//2 229//2
f 239//31 244//31 230//31
f 240//29 246//29 235//29
f 246//29 241//29 235//29
f 246//4 212//4 241//4
f 247//1 248//1 211//1
f 248//1 240//1 211//1
f 240//1 210//1 211//1
f 208//1 247//1 211//1
f 227//32 208//32 211//32
f 212//4 246//4 227//4
f 249//4 209//4 227//4
f 250//4 249//4 227//4
f 246//4 250//4 227//4
f 209//32 208//32 227//32
f 207//1 251//1 208//1
f 251//1 247//1 208//1
f 252//4 226//4 209//4
f 249//4 252//4 209//4
f 205//1 253//1 207//1
f 253//1 251//1 207//1
f 226//33 206//33 207//33
f 206//33 205//33 207//33
f 252//4 206//4 226//4
f 242//30 254//30 215//30
f 254//30 231//30 215//30
f 254//4 245//4 231//4
f 248//1 255//1 240//1
f 255//1 256//1 240//1
f 256//3 246//3 240//3
f 257//4 250//4 246//4
f 258//4 257//4 246//4
f 256//3 258//3 246//3
f 244//1 259//1 236//1
f 260//28 237//28 236//28
f 259//28 260//28 236//28
f 260//4 261//4 237//4
f 261//4 239//4 237//4
f 249//34 250//34 248//34
f 247//34 249//34 248//34
f 250//35 257//35 248//35
f 257//35 255//35 248//35
f 253//36 252//36 251//36
f 252//37 262//37 251//37
f 262//37 263//37 251//37
f 264//1 247//1 251//1
f 263//1 264//1 251//1
f 249//4 262//4 252//4
f 265//4 206//4 252//4
f 253//36 265//36 252//36
f 233//38 221//38 223//38
f 221//38 220//38 223//38
f 266//1 222//1 223//1
f 220//1 266//1 223//1
f 224//4 221//4 233//4
f 267//1 259//1 244//1
f 239//31 267//31 244//31
f 261//31 267//31 239//31
f 268//39 224//39 222//39
f 266//39 268//39 222//39
f 268//4 221//4 224//4
f 204//1 253//1 205//1
f 265//4 269//4 206//4
f 269//4 225//4 206//4
f 204//1 263//1 253//1
f 263//28 265//28 253//28
f 262//4 270//4 265//4
f 270//4 269//4 265//4
f 263//28 262//28 265//28
f 271//34 249//34 247//34
f 264//34 271//34 247//34
f 271//4 262//4 249//4
f 219//1 266//1 220//1
f 268//4 232//4 221//4
f 266//1 219//1 259//1
f 267//1 266//1 259//1
f 232//28 260//28 259//28
f 219//28 232//28 259//28
f 232//4 268//4 260//4
f 268//4 261//4 260//4
f 272//5 269//5 204//5
f 273//1 263//1 204//1
f 203//1 272//1 204//1
f 269//6 270//6 204//6
f 270//6 273//6 204//6
f 274//1 275//1 267//1
f 275//1 266//1 267//1
f 261//38 274//38 267//38
f 276//4 225//4 269//4
f 272//5 276//5 269//5
f 268//4 277//4 261//4
f 277//38 274//38 261//38
f 278//1 275//1 274//1
f 277//38 278//38 274//38
f 268//4 279//4 277//4
f 279//4 280//4 277//4
f 280//4 281//4 277//4
f 281//38 278//38 277//38
f 279//39 268//39 266//39
f 275//39 279//39 266//39
f 278//1 282//1 275//1
f 280//39 279//39 275//39
f 282//39 280//39 275//39
f 242//1 283//1 278//1
f 283//1 282//1 278//1
f 281//38 242//38 278//38
f 280//4 254//4 281//4
f 254//38 242//38 281//38
f 256//1 283//1 243//1
f 283//1 242//1 243//1
f 245//2 256//2 243//2
f 284//4 258//4 245//4
f 254//4 284//4 245//4
f 258//2 256//2 245//2
f 255//1 283//1 256//1
f 284//4 257//4 258//4
f 280//4 284//4 254//4
f 284//39 280//39 282//39
f 283//39 284//39 282//39
f 285//1 283//1 255//1
f 286//1 285//1 255//1
f 257//38 286//38 255//38
f 284//4 287//4 257//4
f 287//38 286//38 257//38
f 288//39 284//39 283//39
f 285//39 288//39 283//39
f 288//4 287//4 284//4
f 264//1 285//1 286//1
f 287//38 264//38 286//38
f 288//4 271//4 287//4
f 271//38 264//38 287//38
f 263//1 285//1 264//1
f 288//4 262//4 271//4
f 273//1 285//1 263//1
f 288//4 270//4 262//4
f 273//1 203//1 285//1
f 225//39 288//39 285//39
f 203//39 225//39 285//39
f 225//4 270//4 288//4
f 272//1 203//1 273//1
f 270//38 276//38 273//38
f 276//38 272//38 273//38
f 225//4 276//4 270//4
